# xmcd
#
# Track frame offsets:
# 150
# 12152
# 25309
# 43083
# 53376
#
# Disc length: 875 seconds
#
#
# Revision: 0
# Processed by: cddbd v1.5.2PL0 Copyright (c) Steve Scherf et al.
# Submitted via: FreeRIP 2.944 
#
DISCID=31036905
DTITLE=Brian Hyland Blue Christmas
DYEAR=2005
DGENRE=Rock and Roll
TTITLE0=Brian Hyland - Santa Oh Santa
TTITLE1=Brian Hyland - Blue Christmas
TTITLE2=Brian Hyland - He Ain't my Heavy, He's my Brother ( Hollie's Cover )
TTITLE3=Brian Hyland - I'll be Home for Christmas
TTITLE4=Brian Hyland - Santa Claus is Coming To Town
EXTD=UK-Import CD-Single
EXTT0=
EXTT1=
EXTT2=
EXTT3=
EXTT4=
PLAYORDER=
